<?xml version="1.0" encoding="utf-8"?>
<!-- Generator: Adobe Illustrator 17.1.0, SVG Export Plug-In . SVG Version: 6.00 Build 0)  -->
<!DOCTYPE svg PUBLIC "-//W3C//DTD SVG 1.1//EN" "http://www.w3.org/Graphics/SVG/1.1/DTD/svg11.dtd">
<svg version="1.1" id="Layer_1" xmlns="http://www.w3.org/2000/svg" xmlns:xlink="http://www.w3.org/1999/xlink" x="0px" y="0px"
	 viewBox="0 0 412 412" enable-background="new 0 0 412 412" xml:space="preserve">
<path fill="none" stroke="#D71D4C" stroke-width="10" stroke-miterlimit="10" d="M406.6,206c0,0-89.8-89.9-200.6-89.9
	S5.4,206,5.4,206s89.8,89.9,200.6,89.9S406.6,206,406.6,206z"/>
<circle fill="none" stroke="#D71D4C" stroke-width="10" stroke-miterlimit="10" cx="206" cy="206" r="68.1"/>
<line fill="none" stroke="#D71D4C" stroke-width="10" stroke-miterlimit="10" x1="5.4" y1="407.1" x2="407.5" y2="4.9"/>
<line fill="none" stroke="#D71D4C" stroke-width="10" stroke-miterlimit="10" x1="407.5" y1="407.1" x2="5.4" y2="4.9"/>
<line fill="none" stroke="#D71D4C" stroke-width="10" stroke-miterlimit="10" x1="206" y1="116.1" x2="206" y2="70.5"/>
<line fill="none" stroke="#D71D4C" stroke-width="10" stroke-miterlimit="10" x1="150.2" y1="121.7" x2="139.1" y2="78.7"/>
<line fill="none" stroke="#D71D4C" stroke-width="10" stroke-miterlimit="10" x1="93.2" y1="144.9" x2="69.5" y2="101.5"/>
<line fill="none" stroke="#D71D4C" stroke-width="10" stroke-miterlimit="10" x1="40.3" y1="176.7" x2="7" y2="138"/>
<line fill="none" stroke="#D71D4C" stroke-width="10" stroke-miterlimit="10" x1="261.8" y1="121.7" x2="272.9" y2="78.7"/>
<line fill="none" stroke="#D71D4C" stroke-width="10" stroke-miterlimit="10" x1="318.8" y1="144.9" x2="342.5" y2="101.5"/>
<line fill="none" stroke="#D71D4C" stroke-width="10" stroke-miterlimit="10" x1="371.7" y1="176.7" x2="405" y2="138"/>
</svg>
